EMG
version=1
nRows=24
nColumns=17
inDegrees=no
endheader
time	_right_gast_med	_right_glut_max	_left_gast_med	_left_glut_max	_right_glut_med	_right_bic_fem	_right_rect_fem	_right_vast_lat	_right_vast_med	_right_tens_fasc_lat	_left_glut_med	_left_bic_fem	_left_rect_fem	_left_vast_lat	_left_vast_med	_left_tens_fasc_lat
      0.00000000	     -0.01001554	      0.00534789	      0.08734216	      0.57737106	     -0.01792440	      0.01096928	     -0.00454437	      0.00967919	      0.00398629	      0.01449414	      0.00971115	      0.00732119	      0.00544097	      0.02303775	     -0.03013236	      0.00720286
      0.01000000	     -0.00162515	     -0.00906989	      0.07316166	      0.98079842	     -0.00283216	      0.02166465	      0.00018020	      0.02074142	      0.00416114	      0.01681150	      0.00608735	      0.00681346	      0.01307502	      0.01338023	     -0.08656601	      0.00776848
      0.02000000	      0.00202732	     -0.00558892	      0.00804563	     -0.42165193	      0.01751351	      0.03412354	      0.00805970	      0.00981098	     -0.00069748	      0.01889863	      0.00557820	      0.00769040	      0.01688287	     -0.00629655	     -0.08011719	      0.01787863
      0.03000000	      0.00465381	      0.00101904	     -0.04178968	     -2.27741289	      0.02670029	      0.02792664	      0.01256123	      0.00945273	     -0.00890369	      0.01827126	      0.00327456	      0.00760558	      0.01440370	     -0.00141964	      0.01132552	      0.02684051
      0.04000000	      0.00774580	     -0.00152404	     -0.01093293	     -1.97012472	      0.02188299	      0.02205932	      0.01681525	      0.02951901	     -0.01846380	      0.01269213	     -0.00375673	      0.00877061	      0.01124444	      0.02184186	      0.10208570	      0.01999657
      0.05000000	      0.01261245	     -0.00797643	      0.01190227	     -0.29740956	      0.01624526	      0.02682207	      0.01829195	      0.03920399	     -0.02171358	      0.00683443	     -0.00949536	      0.01497971	      0.00961352	      0.03289480	      0.12129042	      0.01258053
      0.06000000	      0.02380963	     -0.01110113	     -0.00077762	      0.78918386	      0.01253624	      0.02618840	      0.01251711	      0.02870510	     -0.02566186	      0.00775839	     -0.00869499	      0.02034189	      0.00576437	      0.02549764	      0.07678618	      0.02247986
      0.07000000	      0.03603940	     -0.00738254	     -0.00552071	      0.99848777	      0.00927716	      0.01541211	      0.00075739	      0.01528026	     -0.05887076	      0.01148402	     -0.00216020	      0.01669192	      0.00204889	      0.00790492	      0.00928789	      0.03775707
      0.08000000	      0.03687850	      0.00171665	     -0.01285707	      0.87618035	      0.00630784	      0.00651896	     -0.00200740	      0.00514748	     -0.17206594	      0.01498891	      0.00590148	      0.00579949	      0.00482596	     -0.00791992	     -0.04010564	      0.04348189
      0.09000000	      0.02485448	      0.01436727	     -0.02008186	      0.71499717	     -0.00015139	      0.00386710	      0.03495051	      0.00013093	     -0.34041408	      0.02497161	      0.01085003	      0.00009866	      0.00777246	     -0.00751733	     -0.04584135	      0.03674971
      0.10000000	      0.01176878	      0.02686408	      0.00324213	      0.55813760	     -0.00635965	      0.00446640	      0.08823619	      0.01256548	     -0.35696453	      0.03995842	      0.01287659	      0.00417563	      0.00491122	      0.00820688	     -0.03098983	      0.02496306
      0.11000000	      0.00576388	      0.02218630	      0.04384735	      0.41317993	     -0.00574064	      0.00964510	      0.07134583	      0.03872222	     -0.06994530	      0.05601446	      0.01363131	      0.00942500	      0.00506279	      0.02119365	     -0.03628419	      0.02024050
      0.12000000	      0.00206857	     -0.00113616	      0.03007811	      0.29345199	     -0.00309021	      0.00510897	     -0.01607695	      0.05369953	      0.29529878	      0.05934503	      0.01267537	      0.01200531	      0.01033434	      0.02410747	     -0.04494536	      0.01987628
      0.13000000	      0.00326537	     -0.01420091	     -0.00486199	      0.20374522	     -0.00141261	      0.00060101	     -0.07687587	      0.02893030	      0.42448744	      0.02874904	      0.00893925	      0.01302618	      0.01203933	      0.01999249	     -0.01800696	      0.01404926
      0.14000000	      0.01492721	     -0.00760246	     -0.00140831	      0.13827592	     -0.00001871	      0.01930852	     -0.07677034	     -0.02231828	      0.31793731	     -0.01851822	      0.00297527	      0.01084369	      0.00920541	      0.01121810	      0.02582496	      0.00175171
      0.15000000	      0.03302348	      0.00636402	      0.00754530	      0.07989438	      0.00001318	      0.02532217	     -0.04811155	     -0.04346463	      0.14969285	     -0.04352877	     -0.00052094	      0.00690472	      0.00517247	      0.00655441	      0.04672342	     -0.01097643
      0.16000000	      0.00812466	      0.02328490	      0.01055728	      0.01128930	     -0.00105969	     -0.00574330	     -0.01497488	     -0.03075287	      0.06717712	     -0.04612291	      0.00151213	      0.00638229	      0.00276171	      0.00674809	      0.04057235	     -0.01839843
      0.17000000	     -0.12358869	      0.03178059	      0.01473466	     -0.06358293	     -0.00069982	     -0.03299168	      0.00865361	     -0.03055877	      0.10575715	     -0.03740416	      0.00794317	      0.01232766	      0.00685345	      0.00335171	      0.02599793	     -0.01918260
      0.18000000	     -0.18585421	      0.02747548	      0.01198481	     -0.12768567	      0.00282664	     -0.01592692	      0.02359793	     -0.03696792	      0.15398088	     -0.00890086	      0.01482846	      0.01713564	      0.01207143	      0.00036352	      0.02236824	     -0.01834959
      0.19000000	      0.01562693	      0.03036296	      0.00800122	     -0.16197920	      0.01080649	      0.02684632	      0.03230711	     -0.03404852	      0.09075712	      0.01650832	      0.01759855	      0.01125455	      0.01215744	      0.00497038	      0.03209573	     -0.02062886
      0.20000000	      0.18490443	      0.02644457	      0.01007320	     -0.15819846	      0.03474016	      0.04757857	      0.02416291	     -0.03999364	     -0.02722573	      0.01305132	      0.01522873	      0.00124009	      0.01036934	      0.01207692	      0.03389825	     -0.02585150
      0.21000000	      0.08532216	     -0.00018231	      0.01043202	     -0.13821037	      0.05455735	      0.01909133	      0.00428147	      0.00694482	     -0.06504542	      0.00975593	      0.01273413	     -0.00260987	      0.01257940	      0.01363537	      0.01776183	     -0.02276717
      0.22000000	     -0.00939332	     -0.01673657	      0.00633612	     -0.12501043	      0.03295869	     -0.02988166	      0.00476410	      0.09140113	     -0.01189335	      0.01548285	      0.01170435	      0.00021675	      0.01527734	      0.01018471	      0.00954485	     -0.01040022
      0.23000000	      0.39720246	     -0.01786502	      0.00489818	     -0.11646482	      0.00715371	     -0.04513409	      0.02509166	      0.08486327	      0.04762233	      0.00229918	      0.00560358	      0.00520162	      0.01034538	      0.00763326	      0.03524913	      0.00351792
